<?xml version="1.0" encoding="utf-8"?>
<!-- Generator: Adobe Illustrator 23.0.1, SVG Export Plug-In . SVG Version: 6.00 Build 0)  -->
<svg version="1.1" id="Layer_1" xmlns="http://www.w3.org/2000/svg" xmlns:xlink="http://www.w3.org/1999/xlink" x="0px" y="0px"
	 viewBox="0 0 1366 768" style="enable-background:new 0 0 1366 768;" xml:space="preserve">
<style type="text/css">
	.st0{fill:none;stroke:#231F20;stroke-width:19.1754;stroke-miterlimit:10;}
</style>
<g>
	<g id="Layer_1-2">
		<polygon class="st0" points="564.4,377.8 564.4,343.1 564.4,308.5 625.5,343.1 625.5,377.8 594.9,395.1 		"/>
	</g>
</g>
<path d="M603.1,334.5c3.4,0,6.2,1.2,8.6,3.6c2.4,2.4,3.6,5.3,3.6,8.6v24.4c0,3.3-1.2,6.2-3.6,8.6c-2.4,2.4-5.3,3.6-8.6,3.6h-37.3
	v-64.9h12.9v16H603.1z M578.7,347.4v23.1h23.8v-23.1H578.7z"/>
<path d="M659.1,334.5c3.4,0,6.2,1.2,8.6,3.6c2.4,2.4,3.6,5.3,3.6,8.6v18.7h-36.6v5.1h36.6v12.9H634c-3.3,0-6.2-1.2-8.6-3.6
	c-2.4-2.4-3.6-5.3-3.6-8.6v-24.4c0-3.3,1.2-6.2,3.6-8.6c2.4-2.4,5.3-3.6,8.6-3.6H659.1z M634.7,354.1h23.8v-6.7h-23.8V354.1z"/>
<path d="M711.2,347.4h-18.1v23.1h18.1v12.9h-18.7c-3.4,0-6.3-1.2-8.7-3.6c-2.4-2.4-3.6-5.3-3.6-8.6V320h12.9v14.5h18.1V347.4z"/>
<path d="M755.3,334.5c3.4,0,6.2,1.2,8.6,3.6c2.4,2.4,3.6,5.3,3.6,8.6v18.7h-36.6v5.1h36.6v12.9h-37.3c-3.3,0-6.2-1.2-8.6-3.6
	c-2.4-2.4-3.6-5.3-3.6-8.6v-24.4c0-3.3,1.2-6.2,3.6-8.6c2.4-2.4,5.3-3.6,8.6-3.6H755.3z M730.9,354.1h23.8v-6.7h-23.8V354.1z"/>
<path d="M823.7,347.4h-36.6v23.1h36.6v12.9h-37.3c-3.3,0-6.2-1.2-8.6-3.6c-2.4-2.4-3.6-5.3-3.6-8.6v-24.4c0-3.3,1.2-6.2,3.6-8.6
	c2.4-2.4,5.3-3.6,8.6-3.6h37.2V347.4z"/>
<path d="M867.9,334.5c3.3,0,6.2,1.2,8.6,3.6c2.4,2.4,3.6,5.3,3.6,8.6v36.6h-12.9v-36h-23.8v36h-12.9v-64.9h12.9v16H867.9z"/>
</svg>
